<svg width="24" height="25" viewBox="0 0 24 25" fill="none" xmlns="http://www.w3.org/2000/svg">
<path fill-rule="evenodd" clip-rule="evenodd" d="M15.531 9.66785C15.6008 9.73752 15.6562 9.82028 15.694 9.9114C15.7318 10.0025 15.7513 10.1002 15.7513 10.1989C15.7513 10.2975 15.7318 10.3952 15.694 10.4863C15.6562 10.5774 15.6008 10.6602 15.531 10.7299L11.031 15.2299C10.9613 15.2997 10.8785 15.3551 10.7874 15.3929C10.6963 15.4307 10.5986 15.4502 10.5 15.4502C10.4013 15.4502 10.3036 15.4307 10.2125 15.3929C10.1214 15.3551 10.0386 15.2997 9.96897 15.2299L7.71897 12.9799C7.64924 12.9101 7.59392 12.8273 7.55619 12.7362C7.51845 12.6451 7.49902 12.5475 7.49902 12.4489C7.49902 12.3502 7.51845 12.2526 7.55619 12.1615C7.59392 12.0704 7.64924 11.9876 7.71897 11.9179C7.7887 11.8481 7.87149 11.7928 7.9626 11.7551C8.0537 11.7173 8.15136 11.6979 8.24997 11.6979C8.34859 11.6979 8.44624 11.7173 8.53735 11.7551C8.62846 11.7928 8.71124 11.8481 8.78097 11.9179L10.5 13.6384L14.469 9.66785C14.5386 9.59801 14.6214 9.54259 14.7125 9.50478C14.8036 9.46697 14.9013 9.44751 15 9.44751C15.0986 9.44751 15.1963 9.46697 15.2874 9.50478C15.3785 9.54259 15.4613 9.59801 15.531 9.66785Z" fill="#03488B"/>
<path d="M15.4095 4.21824L14.028 2.80224L15.1005 1.75524L16.0335 2.71074L17.3685 2.69424C17.9464 2.6874 18.5198 2.79618 19.055 3.01418C19.5902 3.23217 20.0765 3.55499 20.4851 3.96363C20.8938 4.37228 21.2166 4.85851 21.4346 5.39374C21.6526 5.92896 21.7614 6.50237 21.7545 7.08024L21.7395 8.41524L22.6935 9.34824C23.1067 9.752 23.435 10.2343 23.6592 10.7667C23.8833 11.2992 23.9988 11.871 23.9988 12.4487C23.9988 13.0264 23.8833 13.5983 23.6592 14.1308C23.435 14.6632 23.1067 15.1455 22.6935 15.5492L21.738 16.4822L21.7545 17.8172C21.7614 18.3951 21.6526 18.9685 21.4346 19.5038C21.2166 20.039 20.8938 20.5252 20.4851 20.9339C20.0765 21.3425 19.5902 21.6653 19.055 21.8833C18.5198 22.1013 17.9464 22.2101 17.3685 22.2032L16.0335 22.1882L15.1005 23.1422C14.6968 23.5554 14.2145 23.8838 13.682 24.1079C13.1496 24.3321 12.5777 24.4475 12 24.4475C11.4223 24.4475 10.8504 24.3321 10.318 24.1079C9.78554 23.8838 9.30327 23.5554 8.89951 23.1422L7.96651 22.1867L6.63151 22.2032C6.05364 22.2101 5.48023 22.1013 4.94501 21.8833C4.40978 21.6653 3.92355 21.3425 3.5149 20.9339C3.10625 20.5252 2.78344 20.039 2.56545 19.5038C2.34745 18.9685 2.23867 18.3951 2.24551 17.8172L2.26051 16.4822L1.30651 15.5492C0.893324 15.1455 0.565004 14.6632 0.340848 14.1308C0.116692 13.5983 0.0012207 13.0264 0.0012207 12.4487C0.0012207 11.871 0.116692 11.2992 0.340848 10.7667C0.565004 10.2343 0.893324 9.752 1.30651 9.34824L2.26201 8.41524L2.24551 7.08024C2.23867 6.50237 2.34745 5.92896 2.56545 5.39374C2.78344 4.85851 3.10625 4.37228 3.5149 3.96363C3.92355 3.55499 4.40978 3.23217 4.94501 3.01418C5.48023 2.79618 6.05364 2.6874 6.63151 2.69424L7.96651 2.70924L8.89951 1.75524C9.30327 1.34205 9.78554 1.01373 10.318 0.789579C10.8504 0.565422 11.4223 0.449951 12 0.449951C12.5777 0.449951 13.1496 0.565422 13.682 0.789579C14.2145 1.01373 14.6968 1.34205 15.1005 1.75524L14.028 2.80224C13.764 2.53192 13.4485 2.31712 13.1002 2.17047C12.752 2.02381 12.3779 1.94826 12 1.94826C11.6221 1.94826 11.248 2.02381 10.8998 2.17047C10.5515 2.31712 10.2361 2.53192 9.97201 2.80224L8.59201 4.21824L6.61201 4.19424C6.23428 4.19002 5.85951 4.26133 5.50973 4.40399C5.15994 4.54664 4.84219 4.75776 4.57515 5.02494C4.3081 5.29213 4.09715 5.60999 3.95468 5.95985C3.81221 6.30971 3.74109 6.68451 3.74551 7.06224L3.76951 9.03924L2.35351 10.4207C2.08319 10.6848 1.86839 11.0002 1.72174 11.3485C1.57508 11.6968 1.49953 12.0709 1.49953 12.4487C1.49953 12.8266 1.57508 13.2007 1.72174 13.549C1.86839 13.8972 2.08319 14.2127 2.35351 14.4767L3.76951 15.8567L3.74551 17.8367C3.74129 18.2145 3.8126 18.5892 3.95525 18.939C4.09791 19.2888 4.30903 19.6066 4.57621 19.8736C4.8434 20.1407 5.16126 20.3516 5.51112 20.4941C5.86098 20.6366 6.23578 20.7077 6.61351 20.7032L8.59051 20.6792L9.97201 22.0952C10.2361 22.3656 10.5515 22.5804 10.8998 22.727C11.248 22.8737 11.6221 22.9492 12 22.9492C12.3779 22.9492 12.752 22.8737 13.1002 22.727C13.4485 22.5804 13.764 22.3656 14.028 22.0952L15.408 20.6792L17.388 20.7032C17.7657 20.7075 18.1405 20.6362 18.4903 20.4935C18.8401 20.3508 19.1578 20.1397 19.4249 19.8725C19.6919 19.6054 19.9029 19.2875 20.0453 18.9376C20.1878 18.5878 20.2589 18.213 20.2545 17.8352L20.2305 15.8582L21.6465 14.4767C21.9168 14.2127 22.1316 13.8972 22.2783 13.549C22.4249 13.2007 22.5005 12.8266 22.5005 12.4487C22.5005 12.0709 22.4249 11.6968 22.2783 11.3485C22.1316 11.0002 21.9168 10.6848 21.6465 10.4207L20.2305 9.04074L20.2545 7.06074C20.2587 6.68301 20.1874 6.30824 20.0448 5.95846C19.9021 5.60867 19.691 5.29092 19.4238 5.02388C19.1566 4.75683 18.8388 4.54588 18.4889 4.40341C18.139 4.26094 17.7642 4.18982 17.3865 4.19424L15.4095 4.21824Z" fill="#03488B"/>
</svg>
