<svg width="21" height="20" viewBox="0 0 21 20" fill="none" xmlns="http://www.w3.org/2000/svg">
<path d="M9.45142 13.7499C9.45142 13.4184 9.58311 13.1004 9.81753 12.866C10.052 12.6316 10.3699 12.4999 10.7014 12.4999C11.0329 12.4999 11.3509 12.6316 11.5853 12.866C11.8197 13.1004 11.9514 13.4184 11.9514 13.7499C11.9514 14.0814 11.8197 14.3994 11.5853 14.6338C11.3509 14.8682 11.0329 14.9999 10.7014 14.9999C10.3699 14.9999 10.052 14.8682 9.81753 14.6338C9.58311 14.3994 9.45142 14.0814 9.45142 13.7499ZM9.57517 6.24365C9.55852 6.08595 9.57521 5.92652 9.62417 5.77569C9.67312 5.62486 9.75323 5.486 9.85931 5.36814C9.9654 5.25027 10.0951 5.15602 10.2399 5.09151C10.3848 5.02699 10.5416 4.99365 10.7002 4.99365C10.8587 4.99365 11.0155 5.02699 11.1604 5.09151C11.3053 5.15602 11.4349 5.25027 11.541 5.36814C11.6471 5.486 11.7272 5.62486 11.7762 5.77569C11.8251 5.92652 11.8418 6.08595 11.8252 6.24365L11.3877 10.6274C11.3699 10.7974 11.2898 10.9547 11.1628 11.0691C11.0359 11.1835 10.871 11.2467 10.7002 11.2467C10.5293 11.2467 10.3645 11.1835 10.2375 11.0691C10.1105 10.9547 10.0304 10.7974 10.0127 10.6274L9.57517 6.24365Z" fill="#E53E3E"/>
<path d="M13.5417 3.14146L12.3904 1.96146L13.2842 1.08896L14.0617 1.88521L15.1742 1.87146C15.6557 1.86577 16.1336 1.95641 16.5796 2.13807C17.0256 2.31974 17.4308 2.58875 17.7713 2.92929C18.1119 3.26983 18.3809 3.67502 18.5625 4.12104C18.7442 4.56706 18.8349 5.0449 18.8292 5.52646L18.8167 6.63896L19.6117 7.41646C19.956 7.75293 20.2296 8.15482 20.4164 8.59852C20.6032 9.04223 20.6994 9.51879 20.6994 10.0002C20.6994 10.4816 20.6032 10.9582 20.4164 11.4019C20.2296 11.8456 19.956 12.2475 19.6117 12.584L18.8154 13.3615L18.8292 14.474C18.8349 14.9555 18.7442 15.4334 18.5625 15.8794C18.3809 16.3254 18.1119 16.7306 17.7713 17.0711C17.4308 17.4117 17.0256 17.6807 16.5796 17.8624C16.1336 18.044 15.6557 18.1347 15.1742 18.129L14.0617 18.1165L13.2842 18.9115C12.9477 19.2558 12.5458 19.5294 12.1021 19.7162C11.6584 19.903 11.1818 19.9992 10.7004 19.9992C10.219 19.9992 9.74242 19.903 9.29872 19.7162C8.85501 19.5294 8.45312 19.2558 8.11666 18.9115L7.33916 18.1152L6.22666 18.129C5.7451 18.1347 5.26726 18.044 4.82124 17.8624C4.37522 17.6807 3.97002 17.4117 3.62948 17.0711C3.28894 16.7306 3.01993 16.3254 2.83827 15.8794C2.65661 15.4334 2.56596 14.9555 2.57166 14.474L2.58416 13.3615L1.78916 12.584C1.44484 12.2475 1.17124 11.8456 0.984439 11.4019C0.797642 10.9582 0.701416 10.4816 0.701416 10.0002C0.701416 9.51879 0.797642 9.04223 0.984439 8.59852C1.17124 8.15482 1.44484 7.75293 1.78916 7.41646L2.58541 6.63896L2.57166 5.52646C2.56596 5.0449 2.65661 4.56706 2.83827 4.12104C3.01993 3.67502 3.28894 3.26983 3.62948 2.92929C3.97002 2.58875 4.37522 2.31974 4.82124 2.13807C5.26726 1.95641 5.7451 1.86577 6.22666 1.87146L7.33916 1.88396L8.11666 1.08896C8.45312 0.74464 8.85501 0.47104 9.29872 0.284243C9.74242 0.0974465 10.219 0.0012207 10.7004 0.0012207C11.1818 0.0012207 11.6584 0.0974465 12.1021 0.284243C12.5458 0.47104 12.9477 0.74464 13.2842 1.08896L12.3904 1.96146C12.1704 1.7362 11.9075 1.5572 11.6173 1.43498C11.327 1.31277 11.0153 1.24981 10.7004 1.24981C10.3855 1.24981 10.0738 1.31277 9.78355 1.43498C9.49332 1.5572 9.23046 1.7362 9.01041 1.96146L7.86041 3.14146L6.21041 3.12146C5.89563 3.11795 5.58333 3.17737 5.29184 3.29625C5.00035 3.41513 4.73556 3.59106 4.51302 3.81371C4.29048 4.03637 4.11469 4.30125 3.99596 4.5928C3.87724 4.88435 3.81798 5.19669 3.82166 5.51146L3.84166 7.15897L2.66166 8.31021C2.43639 8.53026 2.25739 8.79313 2.13518 9.08335C2.01297 9.37358 1.95001 9.68531 1.95001 10.0002C1.95001 10.3151 2.01297 10.6269 2.13518 10.9171C2.25739 11.2073 2.43639 11.4702 2.66166 11.6902L3.84166 12.8402L3.82166 14.4902C3.81814 14.805 3.87757 15.1173 3.99644 15.4088C4.11532 15.7003 4.29126 15.9651 4.51391 16.1876C4.73656 16.4101 5.00145 16.5859 5.293 16.7047C5.58455 16.8234 5.89688 16.8826 6.21166 16.879L7.85916 16.859L9.01041 18.039C9.23046 18.2642 9.49332 18.4432 9.78355 18.5654C10.0738 18.6877 10.3855 18.7506 10.7004 18.7506C11.0153 18.7506 11.327 18.6877 11.6173 18.5654C11.9075 18.4432 12.1704 18.2642 12.3904 18.039L13.5404 16.859L15.1904 16.879C15.5052 16.8825 15.8175 16.8231 16.109 16.7042C16.4005 16.5853 16.6653 16.4094 16.8878 16.1867C17.1103 15.9641 17.2861 15.6992 17.4049 15.4076C17.5236 15.1161 17.5828 14.8037 17.5792 14.489L17.5592 12.8415L18.7392 11.6902C18.9644 11.4702 19.1434 11.2073 19.2656 10.9171C19.3879 10.6269 19.4508 10.3151 19.4508 10.0002C19.4508 9.68531 19.3879 9.37358 19.2656 9.08335C19.1434 8.79313 18.9644 8.53026 18.7392 8.31021L17.5592 7.16021L17.5792 5.51021C17.5827 5.19544 17.5233 4.88313 17.4044 4.59164C17.2855 4.30015 17.1096 4.03536 16.8869 3.81283C16.6643 3.59029 16.3994 3.41449 16.1078 3.29577C15.8163 3.17704 15.5039 3.11778 15.1892 3.12146L13.5417 3.14146Z" fill="#E53E3E"/>
</svg>
