<svg width="60" height="60" viewBox="0 0 60 60" fill="none" xmlns="http://www.w3.org/2000/svg">
<g filter="url(#filter0_dd_872_4470)">
<rect x="12" y="2" width="36" height="36" rx="8" fill="#EEA47F"/>
<path d="M28.7512 23.7499C28.7512 23.4184 28.8829 23.1004 29.1173 22.866C29.3518 22.6316 29.6697 22.4999 30.0012 22.4999C30.3327 22.4999 30.6507 22.6316 30.8851 22.866C31.1195 23.1004 31.2512 23.4184 31.2512 23.7499C31.2512 24.0814 31.1195 24.3994 30.8851 24.6338C30.6507 24.8682 30.3327 24.9999 30.0012 24.9999C29.6697 24.9999 29.3518 24.8682 29.1173 24.6338C28.8829 24.3994 28.7512 24.0814 28.7512 23.7499ZM28.875 16.2437C28.8583 16.086 28.875 15.9265 28.924 15.7757C28.9729 15.6249 29.053 15.486 29.1591 15.3681C29.2652 15.2503 29.3949 15.156 29.5397 15.0915C29.6846 15.027 29.8414 14.9937 30 14.9937C30.1585 14.9937 30.3153 15.027 30.4602 15.0915C30.6051 15.156 30.7347 15.2503 30.8408 15.3681C30.9469 15.486 31.027 15.6249 31.076 15.7757C31.1249 15.9265 31.1416 16.086 31.125 16.2437L30.6875 20.6274C30.6697 20.7974 30.5896 20.9547 30.4626 21.0691C30.3357 21.1835 30.1709 21.2467 30 21.2467C29.8291 21.2467 29.6643 21.1835 29.5373 21.0691C29.4103 20.9547 29.3302 20.7974 29.3125 20.6274L28.875 16.2437Z" fill="white"/>
<path d="M32.8415 13.1415L31.6902 11.9615L32.584 11.089L33.3615 11.8852L34.474 11.8715C34.9555 11.8658 35.4334 11.9564 35.8794 12.1381C36.3254 12.3197 36.7306 12.5887 37.0711 12.9293C37.4117 13.2698 37.6807 13.675 37.8624 14.121C38.044 14.5671 38.1347 15.0449 38.129 15.5265L38.1165 16.639L38.9115 17.4165C39.2558 17.7529 39.5294 18.1548 39.7162 18.5985C39.903 19.0422 39.9992 19.5188 39.9992 20.0002C39.9992 20.4816 39.903 20.9582 39.7162 21.4019C39.5294 21.8456 39.2558 22.2475 38.9115 22.584L38.1152 23.3615L38.129 24.474C38.1347 24.9555 38.044 25.4334 37.8624 25.8794C37.6807 26.3254 37.4117 26.7306 37.0711 27.0711C36.7306 27.4117 36.3254 27.6807 35.8794 27.8624C35.4334 28.044 34.9555 28.1347 34.474 28.129L33.3615 28.1165L32.584 28.9115C32.2475 29.2558 31.8456 29.5294 31.4019 29.7162C30.9582 29.903 30.4816 29.9992 30.0002 29.9992C29.5188 29.9992 29.0422 29.903 28.5985 29.7162C28.1548 29.5294 27.7529 29.2558 27.4165 28.9115L26.639 28.1152L25.5265 28.129C25.0449 28.1347 24.5671 28.044 24.121 27.8624C23.675 27.6807 23.2698 27.4117 22.9293 27.0711C22.5887 26.7306 22.3197 26.3254 22.1381 25.8794C21.9564 25.4334 21.8658 24.9555 21.8715 24.474L21.884 23.3615L21.089 22.584C20.7446 22.2475 20.471 21.8456 20.2842 21.4019C20.0974 20.9582 20.0012 20.4816 20.0012 20.0002C20.0012 19.5188 20.0974 19.0422 20.2842 18.5985C20.471 18.1548 20.7446 17.7529 21.089 17.4165L21.8852 16.639L21.8715 15.5265C21.8658 15.0449 21.9564 14.5671 22.1381 14.121C22.3197 13.675 22.5887 13.2698 22.9293 12.9293C23.2698 12.5887 23.675 12.3197 24.121 12.1381C24.5671 11.9564 25.0449 11.8658 25.5265 11.8715L26.639 11.884L27.4165 11.089C27.7529 10.7446 28.1548 10.471 28.5985 10.2842C29.0422 10.0974 29.5188 10.0012 30.0002 10.0012C30.4816 10.0012 30.9582 10.0974 31.4019 10.2842C31.8456 10.471 32.2475 10.7446 32.584 11.089L31.6902 11.9615C31.4702 11.7362 31.2073 11.5572 30.9171 11.435C30.6269 11.3128 30.3151 11.2498 30.0002 11.2498C29.6853 11.2498 29.3736 11.3128 29.0834 11.435C28.7931 11.5572 28.5303 11.7362 28.3102 11.9615L27.1602 13.1415L25.5102 13.1215C25.1954 13.1179 24.8831 13.1774 24.5916 13.2962C24.3002 13.4151 24.0354 13.5911 23.8128 13.8137C23.5903 14.0364 23.4145 14.3013 23.2958 14.5928C23.177 14.8844 23.1178 15.1967 23.1215 15.5115L23.1415 17.159L21.9615 18.3102C21.7362 18.5303 21.5572 18.7931 21.435 19.0834C21.3128 19.3736 21.2498 19.6853 21.2498 20.0002C21.2498 20.3151 21.3128 20.6269 21.435 20.9171C21.5572 21.2073 21.7362 21.4702 21.9615 21.6902L23.1415 22.8402L23.1215 24.4902C23.1179 24.805 23.1774 25.1173 23.2962 25.4088C23.4151 25.7003 23.5911 25.9651 23.8137 26.1876C24.0364 26.4101 24.3013 26.5859 24.5928 26.7047C24.8844 26.8234 25.1967 26.8826 25.5115 26.879L27.159 26.859L28.3102 28.039C28.5303 28.2642 28.7931 28.4432 29.0834 28.5654C29.3736 28.6877 29.6853 28.7506 30.0002 28.7506C30.3151 28.7506 30.6269 28.6877 30.9171 28.5654C31.2073 28.4432 31.4702 28.2642 31.6902 28.039L32.8402 26.859L34.4902 26.879C34.805 26.8825 35.1173 26.8231 35.4088 26.7042C35.7003 26.5853 35.9651 26.4094 36.1876 26.1867C36.4101 25.9641 36.5859 25.6992 36.7047 25.4076C36.8234 25.1161 36.8826 24.8037 36.879 24.489L36.859 22.8415L38.039 21.6902C38.2642 21.4702 38.4432 21.2073 38.5654 20.9171C38.6877 20.6269 38.7506 20.3151 38.7506 20.0002C38.7506 19.6853 38.6877 19.3736 38.5654 19.0834C38.4432 18.7931 38.2642 18.5303 38.039 18.3102L36.859 17.1602L36.879 15.5102C36.8825 15.1954 36.8231 14.8831 36.7042 14.5916C36.5853 14.3002 36.4094 14.0354 36.1867 13.8128C35.9641 13.5903 35.6992 13.4145 35.4076 13.2958C35.1161 13.177 34.8037 13.1178 34.489 13.1215L32.8415 13.1415Z" fill="white"/>
</g>
<defs>
<filter id="filter0_dd_872_4470" x="0" y="0" width="60" height="60" filterUnits="userSpaceOnUse" color-interpolation-filters="sRGB">
<feFlood flood-opacity="0" result="BackgroundImageFix"/>
<feColorMatrix in="SourceAlpha" type="matrix" values="0 0 0 0 0 0 0 0 0 0 0 0 0 0 0 0 0 0 127 0" result="hardAlpha"/>
<feMorphology radius="2" operator="erode" in="SourceAlpha" result="effect1_dropShadow_872_4470"/>
<feOffset dy="4"/>
<feGaussianBlur stdDeviation="3"/>
<feColorMatrix type="matrix" values="0 0 0 0 0 0 0 0 0 0 0 0 0 0 0 0 0 0 0.05 0"/>
<feBlend mode="normal" in2="BackgroundImageFix" result="effect1_dropShadow_872_4470"/>
<feColorMatrix in="SourceAlpha" type="matrix" values="0 0 0 0 0 0 0 0 0 0 0 0 0 0 0 0 0 0 127 0" result="hardAlpha"/>
<feMorphology radius="3" operator="erode" in="SourceAlpha" result="effect2_dropShadow_872_4470"/>
<feOffset dy="10"/>
<feGaussianBlur stdDeviation="7.5"/>
<feColorMatrix type="matrix" values="0 0 0 0 0 0 0 0 0 0 0 0 0 0 0 0 0 0 0.1 0"/>
<feBlend mode="normal" in2="effect1_dropShadow_872_4470" result="effect2_dropShadow_872_4470"/>
<feBlend mode="normal" in="SourceGraphic" in2="effect2_dropShadow_872_4470" result="shape"/>
</filter>
</defs>
</svg>
