<svg width="43" height="60" viewBox="0 0 43 60" fill="none" xmlns="http://www.w3.org/2000/svg">
<path d="M6.63346 15.2718H9.35529C9.35529 17.9207 9.41489 21.3181 10.799 24.1657C12.6798 28.0134 15.3155 30.126 18.4479 30.2121H18.5009C21.5936 30.1061 24.2161 28.0134 26.0969 24.1657C27.5009 21.3114 27.5803 17.9075 27.5671 15.2651H30.2161C30.3279 15.2753 30.4406 15.262 30.547 15.2262C30.6534 15.1904 30.7511 15.1328 30.834 15.0571C30.9169 14.9814 30.9831 14.8892 31.0284 14.7865C31.0737 14.6838 31.0971 14.5728 31.0971 14.4605C31.0971 14.3482 31.0737 14.2372 31.0284 14.1345C30.9831 14.0318 30.9169 13.9396 30.834 13.8639C30.7511 13.7882 30.6534 13.7306 30.547 13.6948C30.4406 13.659 30.3279 13.6457 30.2161 13.6559H29.8121V13.5896C29.8121 13.179 29.8121 12.7817 29.8121 12.3976C29.8121 8.21882 27.4148 4.90096 23.3751 3.45064L23.4678 2.4374L22.2492 1.39767C21.1679 0.494659 19.8038 0 18.395 0C16.9861 0 15.6221 0.494659 14.5407 1.39767L13.3553 2.4374L13.4678 3.47713C9.43476 4.92745 7.0308 8.23868 7.0308 12.4307C7.0308 12.8214 7.0308 13.232 7.0308 13.6492V13.6956H6.63346C6.52165 13.6854 6.40896 13.6987 6.30257 13.7345C6.19618 13.7704 6.09842 13.828 6.01553 13.9037C5.93264 13.9794 5.86643 14.0715 5.82113 14.1742C5.77584 14.2769 5.75244 14.388 5.75244 14.5002C5.75244 14.6125 5.77584 14.7235 5.82113 14.8262C5.86643 14.929 5.93264 15.0211 6.01553 15.0968C6.09842 15.1725 6.19618 15.2301 6.30257 15.2659C6.40896 15.3018 6.52165 15.315 6.63346 15.3049V15.2718ZM24.6466 23.4638C23.0241 26.775 20.938 28.5233 18.4744 28.6094C15.3486 28.5035 13.3619 25.7551 12.2427 23.4704C11.0175 20.934 10.9182 17.8611 10.9646 15.2784H25.9578C25.9645 17.7552 25.8982 20.9273 24.6532 23.4638H24.6466ZM28.1764 12.4042C28.1764 12.7883 28.1764 13.1923 28.1764 13.6029V13.6956H22.2161L23.1896 5.08639C24.6777 5.63748 25.9573 6.63812 26.8509 7.94943C27.7445 9.26074 28.2078 10.8177 28.1764 12.4042ZM15.5738 2.65594C16.3617 1.99488 17.3563 1.63088 18.3848 1.62725C19.4132 1.62362 20.4104 1.98059 21.2029 2.63607L21.7592 3.09302L20.6201 13.6956H16.2029L15.0506 3.09965L15.5738 2.65594ZM8.6202 13.636C8.6202 13.2122 8.6202 12.8016 8.6202 12.4042C8.59222 10.8121 9.06223 9.25108 9.96458 7.93911C10.8669 6.62715 12.1565 5.62979 13.6533 5.08639L14.5804 13.6956H8.6202V13.636Z" fill="#03488B"/>
<path d="M32.6993 35.2385C31.8585 35.2398 31.0369 35.49 30.3381 35.9576C29.6393 36.4251 29.0946 37.0891 28.7725 37.8657C28.4505 38.6424 28.3655 39.497 28.5285 40.3219C28.6914 41.1467 29.0948 41.9049 29.688 42.5008C30.2811 43.0967 31.0374 43.5037 31.8615 43.6704C32.6856 43.8372 33.5406 43.7562 34.3187 43.4378C35.0969 43.1194 35.7634 42.5777 36.2341 41.8811C36.7049 41.1844 36.9589 40.364 36.9642 39.5233C36.9668 38.9615 36.8584 38.4048 36.6453 37.8851C36.4321 37.3653 36.1184 36.8928 35.7221 36.4947C35.3258 36.0966 34.8547 35.7806 34.336 35.5651C33.8173 35.3495 33.261 35.2385 32.6993 35.2385ZM32.6993 42.1458C32.1754 42.1458 31.6632 41.9904 31.2276 41.6993C30.792 41.4083 30.4525 40.9945 30.252 40.5105C30.0515 40.0265 29.999 39.4938 30.1012 38.98C30.2034 38.4661 30.4557 37.9941 30.8262 37.6237C31.1966 37.2532 31.6687 37.0009 32.1825 36.8987C32.6964 36.7965 33.229 36.8489 33.713 37.0494C34.1971 37.2499 34.6108 37.5895 34.9019 38.0251C35.1929 38.4607 35.3483 38.9729 35.3483 39.4968C35.3518 39.8469 35.2859 40.1942 35.1543 40.5186C35.0227 40.8431 34.8282 41.1383 34.5819 41.387C34.3355 41.6358 34.0423 41.8333 33.7192 41.9681C33.3961 42.1029 33.0494 42.1723 32.6993 42.1723V42.1458Z" fill="#03488B"/>
<path d="M41.4215 36.9072L40.097 36.6821C40.044 36.5496 39.991 36.4172 39.9314 36.2847L40.7195 35.1722C40.8727 34.9226 40.9389 34.6293 40.9078 34.3382C40.8766 34.047 40.7498 33.7744 40.5473 33.5629L38.6533 31.6689C38.4427 31.4628 38.1671 31.3363 37.8736 31.311C37.58 31.2856 37.2868 31.363 37.044 31.5298L35.9248 32.3245L35.5208 32.1589L35.2957 30.8344C35.2337 30.5454 35.0769 30.2853 34.8501 30.0957C34.6232 29.9061 34.3395 29.7978 34.044 29.7881H31.395C31.0998 29.7936 30.8155 29.9007 30.5899 30.0913C30.3644 30.2818 30.2114 30.5443 30.1566 30.8344L29.9315 32.1589L29.5275 32.3245L28.4017 31.5298C28.1589 31.363 27.8656 31.2856 27.5721 31.311C27.2786 31.3363 27.003 31.4628 26.7924 31.6689L25.2692 33.192C23.0603 32.5999 20.7813 32.3103 18.4945 32.3311C8.42167 32.3311 1.93827 37.1258 0.170068 45.8343V45.9006C-0.22728 49.437 0.0641089 51.8144 1.1237 53.6157C2.21641 55.523 4.13693 56.5694 5.87202 57.3508C9.85704 59.093 14.1585 59.9948 18.5077 59.9998C22.867 60.0094 27.18 59.1071 31.1699 57.3508C32.9182 56.5694 34.8453 55.5098 35.9314 53.6157C36.7659 52.0396 37.097 50.1191 36.9248 47.4039L37.0308 47.4767C37.2742 47.6453 37.5688 47.7236 37.8638 47.6983C38.1587 47.6729 38.4356 47.5453 38.6466 47.3376L40.5473 45.4436C40.7565 45.2323 40.8855 44.9547 40.9121 44.6586C40.9387 44.3624 40.8612 44.0663 40.693 43.8211L39.8983 42.7019C39.9579 42.5695 40.0175 42.437 40.0639 42.3046L41.3883 42.0794C41.6823 42.0304 41.95 41.8807 42.1457 41.656C42.3414 41.4312 42.453 41.1455 42.4612 40.8476V38.1456C42.4597 37.8503 42.3549 37.5648 42.165 37.3386C41.9751 37.1124 41.7121 36.9598 41.4215 36.9072ZM34.4811 52.7681C33.7857 53.9667 32.5937 54.8873 30.4745 55.8409C26.6855 57.5003 22.5911 58.3485 18.4547 58.3309C14.3332 58.3347 10.2551 57.4893 6.47466 55.8475C4.35547 54.8939 3.16343 53.98 2.46807 52.7747C1.60052 51.2979 1.36874 49.2317 1.71973 46.086C2.84555 40.5231 6.66672 33.9139 18.4613 33.9139C20.5021 33.8993 22.5363 34.1464 24.5143 34.649C24.5363 34.8309 24.5997 35.0053 24.6997 35.1589L25.501 36.2781C25.4414 36.4106 25.3818 36.543 25.3355 36.6755L24.011 36.9139C23.722 36.97 23.4611 37.1236 23.2718 37.349C23.0826 37.5744 22.9765 37.858 22.9712 38.1523V40.8476C22.9824 41.1419 23.0913 41.4242 23.2808 41.6496C23.4703 41.8751 23.7296 42.031 24.0176 42.0926L25.3421 42.3178C25.3951 42.4503 25.448 42.5893 25.5143 42.7218L24.713 43.8277C24.5546 44.0751 24.4831 44.3681 24.5094 44.6606C24.5358 44.9531 24.6586 45.2285 24.8587 45.4436L26.7461 47.331C26.9622 47.5384 27.2423 47.6664 27.5406 47.694C27.8389 47.7217 28.1378 47.6474 28.3884 47.4833L29.4944 46.6953L29.8984 46.8608L30.1235 48.1853C30.1783 48.4755 30.3313 48.7379 30.5568 48.9285C30.7824 49.1191 31.0667 49.2261 31.3619 49.2317H34.0109C34.3064 49.222 34.5901 49.1137 34.8169 48.9241C35.0438 48.7344 35.2006 48.4744 35.2626 48.1853L35.3155 47.8807C35.4347 50.0462 35.1632 51.5959 34.4811 52.7681ZM40.8453 40.5297L39.4413 40.7681C39.2635 40.8 39.0972 40.8779 38.9589 40.9941C38.8207 41.1103 38.7153 41.2607 38.6533 41.4304C38.5562 41.7144 38.4389 41.991 38.3023 42.2582V42.2913C38.2209 42.4659 38.189 42.6595 38.21 42.851C38.231 43.0425 38.3042 43.2246 38.4215 43.3774L39.2294 44.5165L37.746 45.9999L36.6202 45.2052C36.4644 45.0898 36.2794 45.0205 36.0862 45.0053C35.8929 44.9901 35.6993 45.0295 35.5275 45.1191C35.2705 45.2477 35.005 45.3584 34.7328 45.4502C34.5446 45.5058 34.3762 45.6138 34.2472 45.7616C34.1182 45.9093 34.034 46.0908 34.0043 46.2847L33.7725 47.6489H31.6599L31.4215 46.2383C31.3866 46.0617 31.3076 45.8969 31.1918 45.7591C31.076 45.6213 30.9272 45.515 30.7593 45.4502C30.4756 45.3575 30.199 45.2446 29.9315 45.1125C29.763 45.0244 29.5733 44.9852 29.3837 44.9993C29.1941 45.0133 29.0123 45.08 28.8586 45.192L27.6931 46.0065L26.203 44.5165L27.0043 43.3906C27.1197 43.2349 27.189 43.0499 27.2042 42.8567C27.2195 42.6634 27.18 42.4698 27.0904 42.2979C26.96 42.041 26.8472 41.7755 26.7527 41.5032C26.6957 41.3189 26.5888 41.1539 26.4439 41.0265C26.2989 40.8991 26.1216 40.8143 25.9315 40.7814L24.5143 40.543V38.4437L25.9182 38.1986C26.0936 38.1714 26.2592 38.0999 26.3994 37.991C26.5396 37.8821 26.6498 37.7393 26.7196 37.5761V37.5033C26.815 37.2218 26.93 36.9474 27.0639 36.6821C27.1543 36.5134 27.1953 36.3228 27.1824 36.1319C27.1696 35.941 27.1033 35.7576 26.9911 35.6026L26.1765 34.4636L27.6666 32.9801L28.7924 33.7748C28.9419 33.8833 29.1175 33.9502 29.3013 33.9688C29.4851 33.9874 29.6705 33.957 29.8388 33.8808H29.8719C30.1486 33.7543 30.4341 33.648 30.7262 33.5629C30.9033 33.4999 31.0607 33.3915 31.1828 33.2486C31.3048 33.1056 31.3871 32.9331 31.4215 32.7483L31.6533 31.3642H33.746L33.9778 32.7285C34.0051 32.9202 34.0862 33.1004 34.2116 33.248C34.337 33.3957 34.5016 33.5048 34.6864 33.5629C34.97 33.6556 35.2467 33.7684 35.5142 33.9006C35.6795 33.977 35.8619 34.0086 36.0432 33.9923C36.2244 33.976 36.3983 33.9125 36.5473 33.8079L37.7592 32.9934L39.2427 34.4702L38.4215 35.596C38.3109 35.7456 38.2417 35.9217 38.2208 36.1065C38.1999 36.2913 38.228 36.4784 38.3023 36.649V36.6887C38.4357 36.9497 38.5507 37.2197 38.6466 37.4966C38.7069 37.6807 38.8177 37.8442 38.9665 37.9683C39.1152 38.0924 39.2958 38.1722 39.4877 38.1986L40.8453 38.4304V40.5297Z" fill="#03488B"/>
</svg>
