<svg width="50" height="50" viewBox="0 0 50 50" fill="none" xmlns="http://www.w3.org/2000/svg">
<path d="M8.8123 6.25H35.837C38.0225 6.25 39.997 7.13927 41.4289 8.57114C42.8607 10.003 43.75 11.9926 43.75 14.163V25.5727C43.75 27.7582 42.8607 29.7327 41.4289 31.1646C39.997 32.5965 38.0074 33.4857 35.837 33.4857H26.7635V28.3611H35.837C36.6057 28.3611 37.299 28.0446 37.8115 27.5322C38.324 27.0197 38.6405 26.3264 38.6405 25.5577V14.163C38.6405 13.3943 38.324 12.701 37.8115 12.1885C37.299 11.676 36.6057 11.3595 35.837 11.3595H11.3746V33.4857H6.25V8.8123C6.25 7.41057 7.41057 6.25 8.8123 6.25ZM38.6254 43.75H41.1877C42.6045 43.75 43.75 42.5894 43.75 41.1877V38.6254H21.6389V16.4992H16.5143V43.75H38.6405H38.6254ZM6.25 38.6254V41.1877C6.25 42.6045 7.41057 43.75 8.8123 43.75H11.3746V38.6254H6.25Z" fill="#03488B"/>
</svg>
