<svg width="145" height="50" viewBox="0 0 145 50" fill="none" xmlns="http://www.w3.org/2000/svg">
<path d="M8.8123 6.25H35.837C38.0225 6.25 39.997 7.13927 41.4289 8.57114C42.8607 10.003 43.75 11.9926 43.75 14.163V25.5727C43.75 27.7582 42.8607 29.7327 41.4289 31.1646C39.997 32.5965 38.0074 33.4857 35.837 33.4857H26.7635V28.3611H35.837C36.6057 28.3611 37.299 28.0446 37.8115 27.5322C38.324 27.0197 38.6405 26.3264 38.6405 25.5577V14.163C38.6405 13.3943 38.324 12.701 37.8115 12.1885C37.299 11.676 36.6057 11.3595 35.837 11.3595H11.3746V33.4857H6.25V8.8123C6.25 7.41057 7.41057 6.25 8.8123 6.25ZM38.6254 43.75H41.1877C42.6045 43.75 43.75 42.5894 43.75 41.1877V38.6254H21.6389V16.4992H16.5143V43.75H38.6405H38.6254ZM6.25 38.6254V41.1877C6.25 42.6045 7.41057 43.75 8.8123 43.75H11.3746V38.6254H6.25Z" fill="#03488B"/>
<path d="M59.8974 9.728C60.9001 9.728 61.6734 9.98933 62.2174 10.512C62.7614 11.024 63.0334 11.7653 63.0334 12.736C63.0334 13.8773 62.6921 14.7733 62.0094 15.424C61.3374 16.0747 60.4041 16.4 59.2094 16.4H57.9934V16.8L58.0574 20H56.7614L56.8414 16.912L56.7614 9.744L59.8974 9.728ZM59.6894 15.36C60.3508 15.2533 60.8521 14.9867 61.1934 14.56C61.5454 14.1333 61.7214 13.5627 61.7214 12.848C61.7214 11.5253 61.0174 10.8373 59.6094 10.784L58.0574 10.832L58.0094 15.328L59.6894 15.36ZM73.8899 18.976L73.9859 19.072L73.8739 20H69.0259L69.0739 17.6L69.0259 12.032H73.9059L73.9859 12.128L73.8899 13.056L71.8739 12.992L70.2099 13.008L70.1939 15.424L71.7779 15.44L73.1699 15.392L73.2499 15.504L73.1539 16.448L71.6819 16.4L70.1939 16.416L70.1779 17.504L70.1939 19.024L71.7619 19.04L73.8899 18.976ZM83.6431 16.784C84.2937 17.776 85.0137 18.752 85.8031 19.712L85.7871 19.872C85.3391 20.0107 84.9711 20.0907 84.6831 20.112L84.4751 19.984C83.6644 18.7573 83.0511 17.792 82.6351 17.088L81.1311 17.104V17.504L81.1631 20H79.9791L80.0271 17.6L79.9791 12.032L82.6991 12.016C83.5417 12.016 84.1871 12.2133 84.6351 12.608C85.0937 13.0027 85.3231 13.5733 85.3231 14.32C85.3231 14.864 85.1737 15.3493 84.8751 15.776C84.5871 16.2027 84.1764 16.5387 83.6431 16.784ZM81.1471 16.112L82.6511 16.16C83.6004 15.8933 84.0751 15.312 84.0751 14.416C84.0751 13.9467 83.9364 13.5947 83.6591 13.36C83.3817 13.1253 82.9604 12.9973 82.3951 12.976L81.1631 12.992L81.1471 16.112ZM93.0206 13.008L93.0046 15.632L94.3806 15.648L95.7886 15.6L95.8686 15.712L95.7886 16.624L94.2686 16.608L92.9886 16.624V17.504L93.0206 20H91.8366L91.8686 17.6L91.8366 12.032H96.4766L96.5406 12.128L96.4446 13.056L94.4766 12.992L93.0206 13.008ZM106.968 18.976L107.064 19.072L106.952 20H102.104L102.152 17.6L102.104 12.032H106.984L107.064 12.128L106.968 13.056L104.952 12.992L103.288 13.008L103.272 15.424L104.856 15.44L106.248 15.392L106.328 15.504L106.232 16.448L104.76 16.4L103.272 16.416L103.256 17.504L103.272 19.024L104.84 19.04L106.968 18.976ZM115.911 11.952C116.797 11.952 117.565 12.1387 118.215 12.512L117.991 13.616L117.847 13.664C117.581 13.44 117.271 13.264 116.919 13.136C116.567 13.008 116.189 12.944 115.783 12.944C114.994 12.944 114.391 13.2 113.975 13.712C113.559 14.2133 113.351 14.9653 113.351 15.968C113.351 16.9813 113.559 17.7547 113.975 18.288C114.391 18.8213 114.994 19.088 115.783 19.088C116.167 19.088 116.551 19.024 116.935 18.896C117.33 18.7573 117.682 18.576 117.991 18.352L118.135 18.4L118.023 19.504C117.298 19.8987 116.535 20.096 115.735 20.096C114.562 20.096 113.661 19.7493 113.031 19.056C112.402 18.352 112.087 17.3547 112.087 16.064C112.087 14.752 112.418 13.7387 113.079 13.024C113.751 12.3093 114.695 11.952 115.911 11.952ZM129.222 12.128L129.142 13.136L127.654 13.024H126.854L126.806 17.504L126.854 20H125.654L125.702 17.6L125.67 13.024H124.87L123.35 13.136L123.254 13.024L123.35 12.032H129.158L129.222 12.128Z" fill="#03488B"/>
<path d="M62.0611 38.04L61.9491 39H56.8931L56.9731 35.912L56.8931 28.744H58.2051L58.1251 35.8L58.1731 37.928H61.9651L62.0611 38.04ZM72.4134 37.976L72.5094 38.072L72.3974 39H67.5494L67.5974 36.6L67.5494 31.032H72.4294L72.5094 31.128L72.4134 32.056L70.3974 31.992L68.7334 32.008L68.7174 34.424L70.3014 34.44L71.6934 34.392L71.7734 34.504L71.6774 35.448L70.2054 35.4L68.7174 35.416L68.7014 36.504L68.7174 38.024L70.2854 38.04L72.4134 37.976ZM84.7105 39H83.5105L83.3185 38.136L82.9025 36.952L80.9985 36.936L79.3025 36.952L78.8705 38.072L78.6465 39H77.4625L80.5345 31.032H81.9105L84.7105 39ZM82.5665 35.976L81.2385 32.2H81.1425L79.6865 35.976L81.0945 35.992L82.5665 35.976ZM94.354 35.784C95.0047 36.776 95.7247 37.752 96.514 38.712L96.498 38.872C96.05 39.0107 95.682 39.0907 95.394 39.112L95.186 38.984C94.3753 37.7573 93.762 36.792 93.346 36.088L91.842 36.104V36.504L91.874 39H90.69L90.738 36.6L90.69 31.032L93.41 31.016C94.2527 31.016 94.898 31.2133 95.346 31.608C95.8047 32.0027 96.034 32.5733 96.034 33.32C96.034 33.864 95.8847 34.3493 95.586 34.776C95.298 35.2027 94.8873 35.5387 94.354 35.784ZM91.858 35.112L93.362 35.16C94.3113 34.8933 94.786 34.312 94.786 33.416C94.786 32.9467 94.6473 32.5947 94.37 32.36C94.0927 32.1253 93.6713 31.9973 93.106 31.976L91.874 31.992L91.858 35.112ZM109.236 36.616L109.252 39H107.972L103.78 32.92H103.7L103.684 36.344L103.716 39H102.628L102.676 36.648L102.644 31.032H103.908L108.1 37.112H108.212L108.18 31.08L109.284 31L109.236 36.616ZM117.311 36.504L117.343 39H116.159L116.207 36.6L116.159 31.032H117.359L117.311 36.504ZM130.907 36.616L130.923 39H129.643L125.451 32.92H125.371L125.355 36.344L125.387 39H124.299L124.347 36.648L124.315 31.032H125.579L129.771 37.112H129.883L129.851 31.08L130.955 31L130.907 36.616ZM141.021 30.952C141.853 30.952 142.69 31.1333 143.533 31.496L143.133 32.648H142.989C142.594 32.392 142.232 32.216 141.901 32.12C141.57 32.0133 141.213 31.96 140.829 31.96C139.922 31.96 139.24 32.216 138.781 32.728C138.333 33.24 138.109 34.04 138.109 35.128C138.109 36.1733 138.317 36.9307 138.733 37.4C139.149 37.8587 139.81 38.088 140.717 38.088C140.984 38.088 141.24 38.0667 141.485 38.024C141.73 37.9707 142.029 37.88 142.381 37.752V36.952L142.365 35.816L143.469 35.736V38.616C142.392 38.936 141.458 39.096 140.669 39.096C139.41 39.096 138.456 38.76 137.805 38.088C137.165 37.4053 136.845 36.4347 136.845 35.176C136.845 33.8107 137.208 32.7653 137.933 32.04C138.669 31.3147 139.698 30.952 141.021 30.952Z" fill="#03488B"/>
</svg>
