<svg width="168" height="58" viewBox="0 0 168 58" fill="none" xmlns="http://www.w3.org/2000/svg">
<path d="M10.1727 7.21484H41.3694C43.8922 7.21484 46.1715 8.24139 47.8245 9.89431C49.4774 11.5472 50.5039 13.8439 50.5039 16.3494V29.5205C50.5039 32.0434 49.4774 34.3227 47.8245 35.9756C46.1715 37.6286 43.8748 38.6551 41.3694 38.6551H30.8951V32.7394H41.3694C42.2567 32.7394 43.0571 32.374 43.6487 31.7824C44.2402 31.1909 44.6056 30.3905 44.6056 29.5032V16.3494C44.6056 15.462 44.2402 14.6617 43.6487 14.0701C43.0571 13.4785 42.2567 13.1132 41.3694 13.1132H13.1306V38.6551H7.21484V10.1727C7.21484 8.55458 8.55458 7.21484 10.1727 7.21484ZM44.5882 50.5039H47.5461C49.1816 50.5039 50.5039 49.1642 50.5039 47.5461V44.5882H24.9794V19.0463H19.0637V50.5039H44.6056H44.5882ZM7.21484 44.5882V47.5461C7.21484 49.1816 8.55458 50.5039 10.1727 50.5039H13.1306V44.5882H7.21484Z" fill="white"/>
<path d="M69.2901 11.9776C70.4499 11.9776 71.3444 12.2799 71.9736 12.8845C72.6029 13.4767 72.9175 14.3342 72.9175 15.457C72.9175 16.7772 72.5227 17.8136 71.733 18.5662C70.9557 19.3189 69.8761 19.6952 68.4942 19.6952H67.0877V20.1579L67.1617 23.8594H65.6626L65.7551 20.2874L65.6626 11.9961L69.2901 11.9776ZM69.0495 18.4922C69.8144 18.3688 70.3943 18.0604 70.7892 17.5668C71.1963 17.0733 71.3999 16.4132 71.3999 15.5865C71.3999 14.0566 70.5856 13.2608 68.9569 13.1991L67.1617 13.2546L67.1062 18.4552L69.0495 18.4922ZM85.4754 22.6749L85.5864 22.7859L85.4569 23.8594H79.8491L79.9047 21.0833L79.8491 14.6427H85.4939L85.5864 14.7537L85.4754 15.8271L83.1435 15.7531L81.2187 15.7716L81.2002 18.5662L83.0324 18.5848L84.6426 18.5292L84.7351 18.6588L84.6241 19.7507L82.9214 19.6952L81.2002 19.7137L81.1817 20.9722L81.2002 22.7304L83.0139 22.7489L85.4754 22.6749ZM96.757 20.1394C97.5096 21.2868 98.3425 22.4158 99.2555 23.5262L99.237 23.7113C98.7188 23.8717 98.2931 23.9643 97.96 23.9889L97.7194 23.8409C96.7817 22.422 96.0722 21.3053 95.591 20.491L93.8513 20.5095V20.9722L93.8883 23.8594H92.5188L92.5743 21.0833L92.5188 14.6427L95.6651 14.6242C96.6398 14.6242 97.3862 14.8524 97.9045 15.3089C98.435 15.7654 98.7003 16.4255 98.7003 17.2892C98.7003 17.9185 98.5275 18.4799 98.1821 18.9734C97.8489 19.4669 97.3739 19.8556 96.757 20.1394ZM93.8698 19.3621L95.6095 19.4176C96.7076 19.1091 97.2567 18.4367 97.2567 17.4003C97.2567 16.8574 97.0963 16.4502 96.7755 16.1788C96.4547 15.9073 95.9673 15.7593 95.3134 15.7346L93.8883 15.7531L93.8698 19.3621ZM107.604 15.7716L107.586 18.8068L109.177 18.8253L110.806 18.7698L110.898 18.8994L110.806 19.9543L109.048 19.9358L107.567 19.9543V20.9722L107.604 23.8594H106.235L106.272 21.0833L106.235 14.6427H111.602L111.676 14.7537L111.565 15.8271L109.288 15.7531L107.604 15.7716ZM123.737 22.6749L123.848 22.7859L123.719 23.8594H118.111L118.167 21.0833L118.111 14.6427H123.756L123.848 14.7537L123.737 15.8271L121.405 15.7531L119.481 15.7716L119.462 18.5662L121.294 18.5848L122.905 18.5292L122.997 18.6588L122.886 19.7507L121.183 19.6952L119.462 19.7137L119.444 20.9722L119.462 22.7304L121.276 22.7489L123.737 22.6749ZM134.082 14.5501C135.106 14.5501 135.994 14.766 136.747 15.1979L136.488 16.4749L136.321 16.5304C136.013 16.2713 135.655 16.0677 135.248 15.9197C134.841 15.7716 134.403 15.6976 133.934 15.6976C133.021 15.6976 132.324 15.9937 131.843 16.5859C131.361 17.1658 131.121 18.0357 131.121 19.1955C131.121 20.3676 131.361 21.2622 131.843 21.8791C132.324 22.496 133.021 22.8045 133.934 22.8045C134.378 22.8045 134.822 22.7304 135.267 22.5824C135.723 22.422 136.13 22.2122 136.488 21.9531L136.655 22.0086L136.525 23.2856C135.686 23.7422 134.804 23.9704 133.878 23.9704C132.521 23.9704 131.479 23.5694 130.751 22.7674C130.023 21.9531 129.659 20.7995 129.659 19.3065C129.659 17.7889 130.041 16.6168 130.806 15.7901C131.584 14.9635 132.675 14.5501 134.082 14.5501ZM149.479 14.7537L149.387 15.9197L147.665 15.7901H146.74L146.684 20.9722L146.74 23.8594H145.352L145.407 21.0833L145.37 15.7901H144.445L142.687 15.9197L142.576 15.7901L142.687 14.6427H149.405L149.479 14.7537Z" fill="white"/>
<path d="M71.6175 44.7489L71.4879 45.8594H65.6396L65.7321 42.2874L65.6396 33.9961H67.1572L67.0646 42.1579L67.1202 44.6194H71.5064L71.6175 44.7489ZM83.5921 44.6749L83.7031 44.7859L83.5736 45.8594H77.9658L78.0213 43.0833L77.9658 36.6427H83.6106L83.7031 36.7537L83.5921 37.8271L81.2601 37.7531L79.3354 37.7716L79.3169 40.5662L81.1491 40.5848L82.7592 40.5292L82.8518 40.6588L82.7407 41.7507L81.038 41.6952L79.3169 41.7137L79.2983 42.9722L79.3169 44.7304L81.1306 44.7489L83.5921 44.6749ZM97.8163 45.8594H96.4283L96.2062 44.86L95.725 43.4904L93.5226 43.4719L91.5608 43.4904L91.0611 44.7859L90.802 45.8594H89.4325L92.9859 36.6427H94.5775L97.8163 45.8594ZM95.3364 42.3615L93.8002 37.9937H93.6892L92.005 42.3615L93.6337 42.38L95.3364 42.3615ZM108.971 42.1394C109.724 43.2868 110.557 44.4158 111.47 45.5262L111.451 45.7113C110.933 45.8717 110.507 45.9643 110.174 45.9889L109.934 45.8409C108.996 44.422 108.286 43.3053 107.805 42.491L106.065 42.5095V42.9722L106.102 45.8594H104.733L104.788 43.0833L104.733 36.6427L107.879 36.6242C108.854 36.6242 109.6 36.8524 110.119 37.3089C110.649 37.7654 110.914 38.4255 110.914 39.2892C110.914 39.9185 110.742 40.4799 110.396 40.9734C110.063 41.4669 109.588 41.8556 108.971 42.1394ZM106.084 41.3621L107.824 41.4176C108.922 41.1091 109.471 40.4367 109.471 39.4003C109.471 38.8574 109.31 38.4502 108.99 38.1788C108.669 37.9073 108.181 37.7593 107.528 37.7346L106.102 37.7531L106.084 41.3621ZM126.185 43.1018L126.203 45.8594H124.723L119.874 38.8265H119.781L119.763 42.7871L119.8 45.8594H118.541L118.597 43.1388L118.56 36.6427H120.022L124.871 43.6755H125L124.963 36.6982L126.24 36.6056L126.185 43.1018ZM135.526 42.9722L135.563 45.8594H134.193L134.249 43.0833L134.193 36.6427H135.581L135.526 42.9722ZM151.253 43.1018L151.272 45.8594H149.791L144.942 38.8265H144.849L144.831 42.7871L144.868 45.8594H143.609L143.665 43.1388L143.628 36.6427H145.09L149.939 43.6755H150.069L150.032 36.6982L151.309 36.6056L151.253 43.1018ZM162.952 36.5501C163.914 36.5501 164.883 36.7599 165.857 37.1794L165.395 38.5119H165.228C164.771 38.2158 164.352 38.0122 163.969 37.9012C163.587 37.7778 163.174 37.7161 162.729 37.7161C161.681 37.7161 160.891 38.0122 160.361 38.6045C159.842 39.1967 159.583 40.1221 159.583 41.3806C159.583 42.5897 159.824 43.4657 160.305 44.0086C160.786 44.5392 161.551 44.8045 162.6 44.8045C162.908 44.8045 163.205 44.7798 163.488 44.7304C163.772 44.6687 164.118 44.5639 164.525 44.4158V43.4904L164.506 42.1764L165.783 42.0839V45.4152C164.537 45.7853 163.457 45.9704 162.544 45.9704C161.089 45.9704 159.984 45.5818 159.232 44.8045C158.491 44.0148 158.121 42.892 158.121 41.4361C158.121 39.8568 158.541 38.6476 159.38 37.8086C160.231 36.9696 161.422 36.5501 162.952 36.5501Z" fill="white"/>
</svg>
